<svg xmlns="http://www.w3.org/2000/svg" width="64" height="52" viewBox="0 0 64 52">
  <g id="Group_1755" data-name="Group 1755" transform="translate(1863.125 -980)">
    <path id="Path_7731" data-name="Path 7731" d="M-1801.149,1005.372h0c-.849-.752-1.7-1.5-2.563-2.238q-2.533-2.149-5.07-4.294V985.128h-9.8v5.422l-1.946-1.646c-2.507-2.121-5-4.254-7.521-6.362a5.533,5.533,0,0,0-.569-.419l-2.507-2.124-2.506,2.124a5.523,5.523,0,0,0-.57.419c-2.518,2.107-5.015,4.241-7.521,6.362q-8.408,7.114-16.815,14.23c-.865.733-1.714,1.485-2.563,2.238h0l-2.024,1.743,3.981,4.7,1.112-.906a3.28,3.28,0,0,0,.34-.256q1.428-1.225,2.865-2.439l18.535-15.694,5.168-4.372c1.741,1.473,3.455,2.922,5.168,4.372q9.268,7.846,18.534,15.694,1.436,1.216,2.865,2.439a3.267,3.267,0,0,0,.34.256l1.112.906,3.981-4.7Z" transform="translate(0 0)" fill="#fff"/>
    <path id="Path_7732" data-name="Path 7732" d="M-1748.073,1082.421q-9.88-8.234-19.738-16.5c-.689-.576-1.38-1.15-2.074-1.729-.694.579-1.385,1.152-2.074,1.729q-9.866,8.252-19.738,16.5a1.351,1.351,0,0,0-.54,1.165q.019,7.258.011,14.516v6.453h17.408v-15.05h9.868v15.05h17.408v-7.195q0-6.887.011-13.775A1.351,1.351,0,0,0-1748.073,1082.421Z" transform="translate(-61.239 -72.556)" fill="#fff"/>
  </g>
</svg>
