<svg xmlns="http://www.w3.org/2000/svg" width="90" height="109" viewBox="0 0 90 109">
  <g id="Group_1689" data-name="Group 1689" transform="translate(-0.002 0.037)">
    <path id="Path_49" data-name="Path 49" d="M142.335,29.243a29.874,29.874,0,0,1,2.06-10.35,29.555,29.555,0,0,1,8.21-11.558,29.883,29.883,0,0,1,9.854-5.707,31.048,31.048,0,0,1,12.174-1.6,29.237,29.237,0,0,1,10.3,2.631,30,30,0,0,1,10.988,8.513,29.321,29.321,0,0,1,6.358,21.939,27.294,27.294,0,0,1-3.756,11.413c-1.748,2.817-3.663,5.552-5.671,8.194-3.07,4.045-6.316,7.967-9.417,11.991a55.906,55.906,0,0,0-6.9,11.3,33.034,33.034,0,0,0-2.705,9.587,3.8,3.8,0,0,1-.177.908,1.274,1.274,0,0,1-1.467.795,1.346,1.346,0,0,1-1.155-1.218c-.2-1.218-.343-2.456-.614-3.653a39.773,39.773,0,0,0-4.474-10.877,72.333,72.333,0,0,0-5.869-8.534c-2.164-2.786-4.412-5.521-6.6-8.286a96.925,96.925,0,0,1-7.076-9.979,27.4,27.4,0,0,1-3.652-10.01c-.281-1.806-.375-3.653-.551-5.48C142.242,29.253,142.283,29.253,142.335,29.243Zm30.019,21.382a20.838,20.838,0,1,0-20.946-20.3A20.942,20.942,0,0,0,172.355,50.625Z" transform="translate(-127.402 0)" fill="#e2001e"/>
    <path id="Path_50" data-name="Path 50" d="M44.526,655.217a82.59,82.59,0,0,0,16.409-1.765,52.894,52.894,0,0,0,9.021-2.755,26.736,26.736,0,0,0,9.417-6.171,6.951,6.951,0,0,0,2.029-6.367,8.784,8.784,0,0,0-2.352-4.231,24.581,24.581,0,0,0-7.856-5.469c-1.093-.506-2.216-.96-3.34-1.424a4.2,4.2,0,0,1,2.331-8.029,17,17,0,0,1,3.018,1.083,37.6,37.6,0,0,1,9.271,5.335,20.351,20.351,0,0,1,6.566,8.606,14.227,14.227,0,0,1-.406,11.227,23.165,23.165,0,0,1-8.928,9.855,45.738,45.738,0,0,1-9.271,4.572,67.06,67.06,0,0,1-14.328,3.488,84.977,84.977,0,0,1-15.618.578,81.823,81.823,0,0,1-10.249-1.29,66.572,66.572,0,0,1-10.853-2.931c-5.369-1.95-10.364-4.541-14.37-8.7A16.78,16.78,0,0,1,.074,640.738a14.028,14.028,0,0,1,1.259-7.275,23.036,23.036,0,0,1,8.626-9.731,43.007,43.007,0,0,1,9.5-4.7,4.223,4.223,0,0,1,3.517,7.678c-2.071.908-4.183,1.734-6.191,2.766a21.928,21.928,0,0,0-6.587,5.108,6.934,6.934,0,0,0-.51,8.462,19.556,19.556,0,0,0,6.628,5.82A41.887,41.887,0,0,0,27.5,653.2a60.348,60.348,0,0,0,9.885,1.6C39.75,654.979,42.143,655.082,44.526,655.217Z" transform="translate(0 -554.914)" fill="#e2001e"/>
  </g>
</svg>
