<svg xmlns="http://www.w3.org/2000/svg" width="95" height="112" viewBox="0 0 95 112">
  <g id="Group_1690" data-name="Group 1690" transform="translate(0.165 0.014)">
    <path id="Path_58" data-name="Path 58" d="M80.685,75.054A37.535,37.535,0,1,1,81.068-.011c20.985.291,37.736,17.238,37.489,37.88C118.287,58.51,101.175,75.323,80.685,75.054ZM67.131,30.548A53.556,53.556,0,0,0,67.153,44.5a73.465,73.465,0,0,1,27.267,0A53.382,53.382,0,0,0,94.4,30.57,72.994,72.994,0,0,1,67.131,30.548ZM68.324,24.3a63.624,63.624,0,0,0,24.857-.022c-1.418-4.88-3.2-9.425-6.912-12.873a11.34,11.34,0,0,0-4.1-2.418c-2.792-.873-5.044.515-6.98,2.373C71.566,14.9,69.765,19.4,68.324,24.3Zm0,26.44c1.441,4.925,3.265,9.425,6.912,12.94,3.557,3.425,7.34,3.47,10.943.09,3.76-3.515,5.561-8.1,7.025-13.029A64.609,64.609,0,0,0,68.324,50.741Zm41.564-24.895c-2.837.985-5.494,1.97-8.2,2.843-.833.269-.991.672-.9,1.455.18,1.881.428,3.783.428,5.686-.023,3.022-.27,6.022-.383,9.022-.023.425.158,1.164.428,1.254,2.814,1.075,5.674,2.037,8.646,3.067A31.3,31.3,0,0,0,109.888,25.846ZM51.64,49.174c2.927-1.03,5.651-2.015,8.421-2.933.653-.224.743-.56.7-1.142a55.345,55.345,0,0,1-.428-5.8c.023-3.089.27-6.179.383-9.246.023-.4-.18-1.052-.428-1.164-2.814-1.052-5.674-2.037-8.646-3.067A31.25,31.25,0,0,0,51.64,49.174ZM68.549,8.787A31.706,31.706,0,0,0,54.7,20.16c2.5.918,4.908,1.791,7.228,2.642.991-2.575,1.756-5.015,2.837-7.276C65.847,13.22,67.243,11.071,68.549,8.787ZM99.463,22.869c2.544-.94,4.886-1.813,7.363-2.731A30.45,30.45,0,0,0,92.934,8.877,41.183,41.183,0,0,1,99.463,22.869ZM54.7,54.861A30.353,30.353,0,0,0,68.617,66.144a40.292,40.292,0,0,1-6.552-13.97C59.566,53.092,57.2,53.943,54.7,54.861ZM92.911,66.144a30.327,30.327,0,0,0,13.915-11.283c-2.5-.918-4.863-1.769-7.363-2.686A40.7,40.7,0,0,1,92.911,66.144Z" transform="translate(-33.44 0)" fill="#e2001e"/>
    <path id="Path_59" data-name="Path 59" d="M26.1,309.145c-2.139-2.082-4.278-4.164-6.44-6.224a3.5,3.5,0,0,1-1.238-2.776,3.2,3.2,0,0,1,1.981-3,3.308,3.308,0,0,1,3.67.537c1.914,1.657,3.828,3.358,5.742,5.037,1.689,1.478,3.265,3.089,5.066,4.433a11.643,11.643,0,0,1,4.751,8.261c.383,2.91,1.1,5.776,1.711,8.664a6.913,6.913,0,0,1-12.721,4.992,1.268,1.268,0,0,1-.18-.291c-1.058-2.977-3.332-4.791-5.854-6.515-5.021-3.4-9.884-7.007-14.86-10.5a6.566,6.566,0,0,1-2.7-3.828c-1.666-6.448-3.377-12.9-5.044-19.343a3.337,3.337,0,0,1,2.094-4.254,3.371,3.371,0,0,1,4.346,1.948c2.454,5.4,4.863,10.813,7.34,16.186a3.122,3.122,0,0,0,1.306,1.388c3.152,1.724,6.349,3.358,9.547,5.015.383.2.788.381,1.171.582A4.134,4.134,0,0,1,26.1,309.145Z" transform="translate(0 -220.525)" fill="#e2001e"/>
    <path id="Path_60" data-name="Path 60" d="M252.173,309.4c.293-.134.585-.246.878-.4,3.242-1.7,6.53-3.358,9.727-5.1a3.726,3.726,0,0,0,1.464-1.545q3.648-7.925,7.183-15.9a3.511,3.511,0,0,1,3.13-2.373,3.346,3.346,0,0,1,3.535,4.1c-1.734,6.739-3.535,13.477-5.314,20.193a5.936,5.936,0,0,1-2.612,3.381c-5.809,4.1-11.618,8.216-17.36,12.38a9.53,9.53,0,0,0-2.026,2.306c-.54.761-.878,1.634-1.351,2.44a6.915,6.915,0,0,1-12.811-4.769c.743-3.716,1.509-7.455,2.252-11.171a7.56,7.56,0,0,1,2.477-4.276q6.181-5.474,12.361-10.925a3.417,3.417,0,1,1,4.683,4.97c-1.891,1.925-3.805,3.806-5.719,5.709-.225.224-.45.492-.675.739C252.083,309.27,252.128,309.338,252.173,309.4Z" transform="translate(-183.358 -220.493)" fill="#e2001e"/>
  </g>
</svg>
