<svg xmlns="http://www.w3.org/2000/svg" width="36" height="60" viewBox="0 0 36 60">
  <path id="Path_7734" data-name="Path 7734" d="M2166.354,1599.908c-7.018,3.4-11.037,5.774-13.248,8.531l-1.168,1.815c-1.391,2.763-1.657,6.33-1.709,11.781l-.01,4.237c1.818-2.25,4.469-4.2,8.413-6.383,7.305-4.635,7.7-8.651,7.722-19.982m-21.581,10.353-1.174-1.827c-2.213-2.755-6.231-5.127-13.245-8.526.019,11.33.417,15.347,7.722,19.981,3.943,2.19,6.595,4.134,8.413,6.384l-.01-4.237C2146.428,1616.589,2146.162,1613.023,2144.773,1610.261Zm-1.59,17.939a29.229,29.229,0,0,0-6.143-4.584l-.943-.578c-1.646-.906-3.546-1.87-5.743-2.933.02,11.767.448,15.646,8.6,20.52a32.584,32.584,0,0,1,6.917,5.21l.619.676-.01-4.279c-.062-6.589-.436-10.426-2.737-13.418Zm9.783.613c-2.3,2.992-2.675,6.829-2.737,13.418l-.01,4.279.619-.676v-.007a32.642,32.642,0,0,1,6.916-5.2c8.152-4.874,8.58-8.753,8.6-20.52-2.2,1.063-4.1,2.027-5.742,2.933l-.944.578a29.375,29.375,0,0,0-6.146,4.588Zm-2.93-22.506c4.292-6.981,4.169-9.851-1.683-19.8-5.851,9.946-5.974,12.815-1.681,19.8a14.039,14.039,0,0,1,1.437,2.255l.245.375.243-.373A14.186,14.186,0,0,1,2150.036,1606.307Z" transform="translate(-2130.354 -1586.511)" fill="#fff" fill-rule="evenodd"/>
</svg>
