<svg xmlns="http://www.w3.org/2000/svg" width="54" height="60" viewBox="0 0 54 60">
  <path id="Path_7733" data-name="Path 7733" d="M1288.516,742.817a16.836,16.836,0,0,0-6.335,2.966c2.486-13.219,27.923-9.675,16.758-27.737a18.667,18.667,0,0,1,11.22.592c5.119,1.991,6.9,5.668,7.972,9.359C1319.435,741.118,1302.921,738.836,1288.516,742.817Zm41.995,11.414a5.439,5.439,0,0,0-5.1,3.526l-6.266,16.75h-1.917l5.588-15.959a3.193,3.193,0,0,0-.378-2.943,3.28,3.28,0,0,0-5.9,1.359l-3.361,17.543h-1.866l2.739-16.576a3.121,3.121,0,0,0-.675-2.571,3.266,3.266,0,0,0-5.719,2.182l-.227,16.966h-1.849l-.227-16.966a3.28,3.28,0,0,0-.959-2.339,3.181,3.181,0,0,0-5.434,2.729l2.739,16.576h-1.866l-3.361-17.543a3.28,3.28,0,0,0-5.9-1.359,3.193,3.193,0,0,0-.378,2.943l5.588,15.959h-1.917l-6.266-16.75a5.439,5.439,0,0,0-5.1-3.526h-3l12.529,23.221h28.941l12.53-23.221Zm-44.075-2.564a4.129,4.129,0,0,0,3.554,0,6.837,6.837,0,0,1,5.725-.035,4.126,4.126,0,0,0,3.471,0,6.5,6.5,0,0,1,2.751-.606c2.331,0,2.7.975,4.447.975s2.13-.975,4.448-.975c2.357,0,2.736.989,4.485.989s2.129-.989,4.48-.989a6.6,6.6,0,0,1,2.981.64,4.133,4.133,0,0,0,3.554,0,9.982,9.982,0,0,1,4.6-.638c.94-9.819-6.651-11.867-9.282-14.018-7.788,10.847-32.387,5.489-38.4,11.479a3.242,3.242,0,0,0-1.065,2.012,1.2,1.2,0,0,0,.116.527A9.08,9.08,0,0,1,1286.437,751.667Z" transform="translate(-1279.513 -717.452)" fill="#fff"/>
</svg>
