<svg xmlns="http://www.w3.org/2000/svg" width="127" height="109" viewBox="0 0 127 109">
  <g id="Group_1692" data-name="Group 1692" transform="translate(-1088 -5294)">
    <path id="Path_51" data-name="Path 51" d="M24.672,84.451c6.12,3.055,13.738,4.16,14.454,13.194-7.552-3.25-15.04-6.435-22.853-9.815,2.149-4.94,4.232-9.555,6.446-14.624-1.237-.325-2.344-.585-3.451-.845C8.4,70.022.257,60.467,0,49.678c-.26-11.829,6.967-21.514,18.3-24.5a24.491,24.491,0,0,1,27.8,12.284A24.216,24.216,0,0,1,40.3,66.967c-1.693,1.43-3.646,3.12-5.729,3.575-4.3.975-5.795,4.03-7.162,7.54C26.69,80.1,25.779,82.046,24.672,84.451ZM7.549,48.7a16.853,16.853,0,0,0,16.8,16.7A17.054,17.054,0,0,0,41.34,48.768,17.217,17.217,0,0,0,24.281,31.8,17.052,17.052,0,0,0,7.549,48.7Z" transform="translate(1088.01 5285.466)" fill="#e2001e"/>
    <path id="Path_52" data-name="Path 52" d="M91.464,101.655c-.586-2.795-.977-4.875-1.5-7.41,5.013,2.145,10.027,4.225,15.3,6.5C115.1,78.191,124.8,55.9,134.7,33.148,115.489,24.764,96.478,16.574,77.141,8.255c-2.344,5.33-4.623,10.4-6.836,15.469a40.917,40.917,0,0,1-3.776-3.7,2.576,2.576,0,0,1-.391-2.275C68.481,12.024,71.021,6.3,73.755,0,96.8,9.88,119.721,19.759,143.029,29.769,131.571,56.222,120.112,82.481,108.588,109,102.467,106.335,96.673,103.865,91.464,101.655Z" transform="translate(1064.97 5294)" fill="#e2001e"/>
    <path id="Path_53" data-name="Path 53" d="M50.4,99.62c3.581-2.015,6.641-3.77,10.092-5.72,2.083,3.445,4.167,6.89,6.25,10.4,3.711,6.24,7.227,12.609,11.2,18.654,1.953,2.99,1.042,5.33-.912,7.215-2.409,2.34-5.469,3.965-9.115,2.99a3.675,3.675,0,0,1-2.214-1.495Q57.985,115.771,50.4,99.62Z" transform="translate(1070.421 5261.132)" fill="#e2001e"/>
    <path id="Path_55" data-name="Path 55" d="M77.3,154.03c5.664.65,9.961-1.3,12.37-6.63,2.474,2.34,3.06,3.25.912,6.37a12.2,12.2,0,0,1-7.227,4.485C81.272,158.645,77.756,158.06,77.3,154.03Z" transform="translate(1061.035 5242.406)" fill="#e2001e"/>
    <path id="Path_56" data-name="Path 56" d="M16.806,60.453C12.77,50.638,18.629,40.5,28.07,39.459c1.953-.195,3.906-.195,4.362,2.21s-.846,3.445-3.125,4.03C21.885,47.453,17.978,52.393,16.806,60.453Z" transform="translate(1082.594 5280.215)" fill="#e2001e"/>
    <path id="Path_57" data-name="Path 57" d="M51.092,44.956c-2.083,1.56-3.32,3.12-4.427,3.055A4.3,4.3,0,0,1,43.8,45.086a4.178,4.178,0,0,1,2.8-2.99C47.641,41.966,48.943,43.461,51.092,44.956Z" transform="translate(1072.724 5279.268)" fill="#e2001e"/>
    <g id="Ellipse_11" data-name="Ellipse 11" transform="translate(1177 5327)" fill="#fff" stroke="#e2001e" stroke-width="3">
      <circle cx="19" cy="19" r="19" stroke="none"/>
      <circle cx="19" cy="19" r="17.5" fill="none"/>
    </g>
    <path id="Path_61" data-name="Path 61" d="M87.554,70.736C87,65.275,86.486,60.17,86,55.065A.6.6,0,0,1,86.227,55c1.359,3.07,2.719,6.139,4.175,9.338,5.826-2,11.49-3.974,17.187-5.945a1.73,1.73,0,0,1,.162.355C101.083,62.658,94.48,66.632,87.554,70.736Z" transform="translate(1102 5283.707)" fill="#e2001e"/>
    <path id="Path_62" data-name="Path 62" d="M1435.9,1673.356l25.577,10.369" transform="translate(-288 3650)" fill="none" stroke="#e2001e" stroke-width="6"/>
    <path id="Path_63" data-name="Path 63" d="M1435.9,1673.356l25.577,10.369" transform="translate(-293 3664)" fill="none" stroke="#e2001e" stroke-width="6"/>
    <path id="Path_64" data-name="Path 64" d="M1435.9,1673.356l37.6,15.357" transform="translate(-298 3677)" fill="none" stroke="#e2001e" stroke-width="6"/>
    <path id="Path_65" data-name="Path 65" d="M1439.272,1674.606l22.2,9.119" transform="translate(-292 3694)" fill="none" stroke="#e2001e" stroke-width="6"/>
  </g>
</svg>
