<svg xmlns="http://www.w3.org/2000/svg" width="95" height="112" viewBox="0 0 95 112">
  <g id="Group_1700" data-name="Group 1700" transform="translate(-2271 -5804)">
    <g id="Group_1691" data-name="Group 1691" transform="translate(2271.165 5804.014)">
      <path id="Path_59" data-name="Path 59" d="M26.1,309.145c-2.139-2.082-4.278-4.164-6.44-6.224a3.5,3.5,0,0,1-1.238-2.776,3.2,3.2,0,0,1,1.981-3,3.308,3.308,0,0,1,3.67.537c1.914,1.657,3.828,3.358,5.742,5.037,1.689,1.478,3.265,3.089,5.066,4.433a11.643,11.643,0,0,1,4.751,8.261c.383,2.91,1.1,5.776,1.711,8.664a6.913,6.913,0,0,1-12.721,4.992,1.268,1.268,0,0,1-.18-.291c-1.058-2.977-3.332-4.791-5.854-6.515-5.021-3.4-9.884-7.007-14.86-10.5a6.566,6.566,0,0,1-2.7-3.828c-1.666-6.448-3.377-12.9-5.044-19.343a3.337,3.337,0,0,1,2.094-4.254,3.371,3.371,0,0,1,4.346,1.948c2.454,5.4,4.863,10.813,7.34,16.186a3.122,3.122,0,0,0,1.306,1.388c3.152,1.724,6.349,3.358,9.547,5.015.383.2.788.381,1.171.582A4.134,4.134,0,0,1,26.1,309.145Z" transform="translate(0 -220.525)" fill="#e2001e"/>
      <path id="Path_60" data-name="Path 60" d="M252.173,309.4c.293-.134.585-.246.878-.4,3.242-1.7,6.53-3.358,9.727-5.1a3.726,3.726,0,0,0,1.464-1.545q3.648-7.925,7.183-15.9a3.511,3.511,0,0,1,3.13-2.373,3.346,3.346,0,0,1,3.535,4.1c-1.734,6.739-3.535,13.477-5.314,20.193a5.936,5.936,0,0,1-2.612,3.381c-5.809,4.1-11.618,8.216-17.36,12.38a9.53,9.53,0,0,0-2.026,2.306c-.54.761-.878,1.634-1.351,2.44a6.915,6.915,0,0,1-12.811-4.769c.743-3.716,1.509-7.455,2.252-11.171a7.56,7.56,0,0,1,2.477-4.276q6.181-5.474,12.361-10.925a3.417,3.417,0,1,1,4.683,4.97c-1.891,1.925-3.805,3.806-5.719,5.709-.225.224-.45.492-.675.739C252.083,309.27,252.128,309.338,252.173,309.4Z" transform="translate(-183.358 -220.493)" fill="#e2001e"/>
    </g>
    <path id="Path_7703" data-name="Path 7703" d="M44.945,81.161c-9.366-7.519-19.087-14.478-27.334-23.192-5.5-5.821-10.56-11.978-13.993-19.311A36.72,36.72,0,0,1-.02,22.37C.148,11.941,8.395,2.295,18.656.541a22.989,22.989,0,0,1,26.1,14.982c.037.093.093.205.056.131a69.531,69.531,0,0,1,3.638-6.232A22.6,22.6,0,0,1,72.335.821c9.478,2.537,15.337,8.75,17.2,18.415,1.213,6.306-.224,12.351-2.687,18.154C83.977,44.163,79.592,49.947,74.7,55.376A154.925,154.925,0,0,1,53.733,74.258C50.8,76.5,47.912,78.81,44.945,81.161Z" transform="translate(2273.025 5803.908)" fill="#e2001e"/>
  </g>
</svg>
